<?xml version="1.0" encoding="utf-8"?>
<!-- Generator: Adobe Illustrator 19.1.0, SVG Export Plug-In . SVG Version: 6.00 Build 0)  -->
<svg version="1.1" id="Layer_1" xmlns="http://www.w3.org/2000/svg" xmlns:xlink="http://www.w3.org/1999/xlink" x="0px" y="0px"
	 viewBox="0 0 223 257" style="enable-background:new 0 0 223 257;" xml:space="preserve">
<style type="text/css">
	.st0{display:none;}
	.st1{display:inline;fill:none;stroke:#F2CF88;stroke-width:2;stroke-miterlimit:10;}
	.st2{fill:#1A1111;}
</style>
<g class="st0">
	<path class="st1" d="M221.9,170.7c0.4,12.1-8.1,26.6-18.8,32.3l-17,9c-10.7,5.7-27.8,15.6-38.1,22l-18,11.3
		c-10.3,6.4-27.1,6.4-37.3,0L77.9,236c-10.3-6.4-27.4-16.3-38.1-22l-20.3-10.9c-10.7-5.7-18.9-20.3-18.4-32.4L2.2,151
		c0.6-12.1,0.6-31.9,0-44l-1-20.8C0.7,74.2,9,59.7,19.7,54.1l16.7-8.7c10.7-5.6,27.9-15.5,38.1-21.9l18.3-11.6
		C103,5.4,120,5,130.4,11.1l73.1,42.2c10.5,6,18.7,20.9,18.4,33l-0.6,19.1c-0.4,12.1-0.4,31.9,0,44L221.9,170.7z"/>
</g>
<g>
	<path class="st2" d="M214.3,166.3c0.4,12.1-8.1,26.6-18.8,32.3l-13.1,7c-10.7,5.7-27.8,15.6-38.1,22l-14.2,8.9
		c-10.3,6.4-27.1,6.4-37.3,0l-11.2-7c-10.3-6.4-27.4-16.3-38.1-22l-16.2-8.7C16.6,193,8.3,178.4,8.9,166.3L9.6,151
		c0.6-12.1,0.6-31.9,0-44L8.9,90.7c-0.6-12.1,7.8-26.6,18.5-32.2l12.8-6.7c10.7-5.6,27.9-15.5,38.1-21.9l14.5-9.1
		c10.2-6.5,27.2-6.8,37.7-0.7l65.4,37.8c10.5,6,18.7,20.9,18.4,33l-0.5,14.8c-0.4,12.1-0.4,31.9,0,44L214.3,166.3z"/>
</g>
</svg>
